<svg width="1200" height="750" viewBox="0 0 1200 750" fill="none" xmlns="http://www.w3.org/2000/svg">
<g clip-path="url(#clip0_246_2)">
<rect width="1200" height="750" fill="url(#paint0_linear_246_2)"/>
<path d="M113.819 226L106 239.836L113.819 252L121 239.076L117.41 232.538L113.819 226Z" fill="white" stroke="white" stroke-width="10" stroke-linecap="round"/>
<path d="M80.6064 203L78 207.257L80.6064 211L83 207.023L81.8032 205.012L80.6064 203Z" fill="white" stroke="white" stroke-width="10" stroke-linecap="round"/>
<path d="M595.606 683L593 687.257L595.606 691L598 687.023L596.803 685.012L595.606 683Z" fill="white" stroke="white" stroke-width="10" stroke-linecap="round"/>
<path d="M626.691 715L622 722.982L626.691 730L631 722.544L628.846 718.772L626.691 715Z" fill="white"/>
<path d="M73.6064 681L71 685.257L73.6064 689L76 685.023L74.8032 683.012L73.6064 681Z" fill="white" stroke="white" stroke-width="10" stroke-linecap="round"/>
<path d="M37.6915 701L33 708.982L37.6915 716L42 708.544L39.8457 704.772L37.6915 701Z" fill="white"/>
<path d="M1161.61 676L1159 680.257L1161.61 684L1164 680.023L1162.8 678.012L1161.61 676Z" fill="white" stroke="white" stroke-width="10" stroke-linecap="round"/>
<path d="M1125.69 696L1121 703.982L1125.69 711L1130 703.544L1127.85 699.772L1125.69 696Z" fill="white"/>
<path d="M1168.61 194L1166 198.257L1168.61 202L1171 198.023L1169.8 196.012L1168.61 194Z" fill="white" stroke="white" stroke-width="10" stroke-linecap="round"/>
<path d="M1132.69 214L1128 221.982L1132.69 229L1137 221.544L1134.85 217.772L1132.69 214Z" fill="white"/>
<path d="M646.606 -4L644 0.25731L646.606 4L649 0.0233917L647.803 -1.9883L646.606 -4Z" fill="white" stroke="white" stroke-width="10" stroke-linecap="round"/>
<path d="M610.691 16L606 23.9825L610.691 31L615 23.5439L612.846 19.7719L610.691 16Z" fill="white"/>
<path d="M990.606 -4L988 0.25731L990.606 4L993 0.0233917L991.803 -1.9883L990.606 -4Z" fill="white" stroke="white" stroke-width="10" stroke-linecap="round"/>
<path d="M954.691 16L950 23.9825L954.691 31L959 23.5439L956.846 19.7719L954.691 16Z" fill="white"/>
<path d="M305.819 14L298 27.8363L305.819 40L313 27.076L309.41 20.538L305.819 14Z" fill="white" stroke="white" stroke-width="10" stroke-linecap="round"/>
<path d="M272.606 -9L270 -4.74269L272.606 -1L275 -4.97661L273.803 -6.9883L272.606 -9Z" fill="white" stroke="white" stroke-width="10" stroke-linecap="round"/>
<path d="M1012.61 325L1010 329.257L1012.61 333L1015 329.023L1013.8 327.012L1012.61 325Z" fill="white" stroke="white" stroke-width="10" stroke-linecap="round"/>
<path d="M976.691 345L972 352.982L976.691 360L981 352.544L978.846 348.772L976.691 345Z" fill="white"/>
<path d="M874.819 694L867 707.836L874.819 720L882 707.076L878.41 700.538L874.819 694Z" fill="white" stroke="white" stroke-width="10" stroke-linecap="round"/>
<path d="M841.606 671L839 675.257L841.606 679L844 675.023L842.803 673.012L841.606 671Z" fill="white" stroke="white" stroke-width="10" stroke-linecap="round"/>
<path d="M854.819 329L847 342.836L854.819 355L862 342.076L858.41 335.538L854.819 329Z" fill="white" stroke="white" stroke-width="10" stroke-linecap="round"/>
<path d="M821.606 306L819 310.257L821.606 314L824 310.023L822.803 308.012L821.606 306Z" fill="white" stroke="white" stroke-width="10" stroke-linecap="round"/>
<path d="M924.606 488L922 492.257L924.606 496L927 492.023L925.803 490.012L924.606 488Z" fill="white" stroke="white" stroke-width="10" stroke-linecap="round"/>
<path d="M888.691 508L884 515.982L888.691 523L893 515.544L890.846 511.772L888.691 508Z" fill="white"/>
<path d="M1172.82 493L1165 506.836L1172.82 519L1180 506.076L1176.41 499.538L1172.82 493Z" fill="white" stroke="white" stroke-width="10" stroke-linecap="round"/>
<path d="M1139.61 470L1137 474.257L1139.61 478L1142 474.023L1140.8 472.012L1139.61 470Z" fill="white" stroke="white" stroke-width="10" stroke-linecap="round"/>
<path d="M1197.61 13L1195 17.2573L1197.61 21L1200 17.0234L1198.8 15.0117L1197.61 13Z" fill="white" stroke="white" stroke-width="10" stroke-linecap="round"/>
<path d="M1161.69 33L1157 40.9825L1161.69 48L1166 40.5439L1163.85 36.7719L1161.69 33Z" fill="white"/>
<path d="M1041.61 144L1039 148.257L1041.61 152L1044 148.023L1042.8 146.012L1041.61 144Z" fill="white" stroke="white" stroke-width="10" stroke-linecap="round"/>
<path d="M1005.69 164L1001 171.982L1005.69 179L1010 171.544L1007.85 167.772L1005.69 164Z" fill="white"/>
<path d="M35.6064 374L33 378.257L35.6064 382L38 378.023L36.8032 376.012L35.6064 374Z" fill="white" stroke="white" stroke-width="10" stroke-linecap="round"/>
<path d="M-0.30851 394L-5 401.982L-0.30851 409L4 401.544L1.84575 397.772L-0.30851 394Z" fill="white"/>
<path d="M414.606 367L412 371.257L414.606 375L417 371.023L415.803 369.012L414.606 367Z" fill="white" stroke="white" stroke-width="10" stroke-linecap="round"/>
<path d="M378.691 387L374 394.982L378.691 402L383 394.544L380.846 390.772L378.691 387Z" fill="white"/>
<path d="M433.606 683L431 687.257L433.606 691L436 687.023L434.803 685.012L433.606 683Z" fill="white" stroke="white" stroke-width="10" stroke-linecap="round"/>
<path d="M397.691 703L393 710.982L397.691 718L402 710.544L399.846 706.772L397.691 703Z" fill="white"/>
<path d="M291.819 666L284 679.836L291.819 692L299 679.076L295.41 672.538L291.819 666Z" fill="white" stroke="white" stroke-width="10" stroke-linecap="round"/>
<path d="M258.606 643L256 647.257L258.606 651L261 647.023L259.803 645.012L258.606 643Z" fill="white" stroke="white" stroke-width="10" stroke-linecap="round"/>
<path d="M77.8191 21L70 34.8363L77.8191 47L85 34.076L81.4096 27.538L77.8191 21Z" fill="white" stroke="white" stroke-width="10" stroke-linecap="round"/>
<path d="M44.6064 -2L42 2.25731L44.6064 6L47 2.02339L45.8032 0.0116959L44.6064 -2Z" fill="white" stroke="white" stroke-width="10" stroke-linecap="round"/>
<path d="M35.8191 556L28 569.836L35.8191 582L43 569.076L39.4096 562.538L35.8191 556Z" fill="white" stroke="white" stroke-width="10" stroke-linecap="round"/>
<path d="M2.60638 533L0 537.257L2.60638 541L5 537.023L3.80319 535.012L2.60638 533Z" fill="white" stroke="white" stroke-width="10" stroke-linecap="round"/>
<path d="M258.606 498L256 502.257L258.606 506L261 502.023L259.803 500.012L258.606 498Z" fill="white" stroke="white" stroke-width="10" stroke-linecap="round"/>
<path d="M222.691 518L218 525.982L222.691 533L227 525.544L224.846 521.772L222.691 518Z" fill="white"/>
<g filter="url(#filter0_di_246_2)">
<path d="M503.128 322.957C524.378 305.501 548.984 294.847 574.306 290.738C578.914 289.99 581.588 295.639 578.611 299.235C541.83 343.679 540.441 409.346 578.429 455.59C616.416 501.835 681.102 513.222 731.842 485.771C735.947 483.549 740.969 487.269 739.341 491.644C730.394 515.686 715.166 537.756 693.915 555.213C629.78 607.897 535.078 598.614 482.394 534.478C429.709 470.343 438.992 375.641 503.128 322.957Z" fill="white"/>
</g>
<path d="M650.851 319.52C650.213 350.489 639.982 375.394 628 375.147C616.018 374.9 608.358 327.059 608.532 318.648C609.17 287.679 618.33 262.752 630.312 262.999C642.294 263.246 651.49 288.552 650.851 319.52Z" fill="#D6B7A0"/>
<path d="M702.34 320.582C702.167 328.993 691.309 376.452 679.127 376.2C666.945 375.949 659.142 328.106 659.315 319.695C659.954 288.726 669.257 263.802 681.439 264.053C693.621 264.304 702.979 289.613 702.34 320.582Z" fill="#D6B7A0"/>
<path d="M593.111 494.819C590.813 489.108 611.146 440.241 621.599 416.521L685.64 415.144C698.544 438.559 723.215 487.792 718.669 497.407C712.986 509.427 595.984 501.958 593.111 494.819Z" fill="#CDD2FF" stroke="#CDD2FF"/>
<rect x="620.284" y="414.225" width="40.3806" height="55.1614" rx="9.5" transform="rotate(39.9643 620.284 414.225)" fill="#CDD2FF" stroke="#CDD2FF"/>
<rect x="657.037" y="435.317" width="40.3806" height="59.4375" rx="9.5" transform="rotate(-41.0155 657.037 435.317)" fill="#CDD2FF" stroke="#CDD2FF"/>
<ellipse cx="652.76" cy="380.949" rx="61.0238" ry="50.4416" transform="rotate(1.18095 652.76 380.949)" fill="#D6B7A0"/>
<circle cx="623.006" cy="386.686" r="5.99656" transform="rotate(1.18095 623.006 386.686)" fill="#616161"/>
<circle cx="623.006" cy="386.686" r="5.99656" transform="rotate(1.18095 623.006 386.686)" fill="#616161"/>
<circle cx="623.006" cy="386.686" r="5.99656" transform="rotate(1.18095 623.006 386.686)" fill="#616161"/>
<circle cx="687.191" cy="388.009" r="5.99656" transform="rotate(1.18095 687.191 388.009)" fill="#616161"/>
<circle cx="687.191" cy="388.009" r="5.99656" transform="rotate(1.18095 687.191 388.009)" fill="#616161"/>
<circle cx="687.191" cy="388.009" r="5.99656" transform="rotate(1.18095 687.191 388.009)" fill="#616161"/>
<rect x="656.949" y="402.608" width="2.80547" height="13.0481" rx="1.40273" transform="rotate(58.7338 656.949 402.608)" fill="#616161"/>
<rect x="658.385" y="409.439" width="2.80547" height="13.0481" rx="1.40273" transform="rotate(121.801 658.385 409.439)" fill="#616161"/>
<ellipse cx="629.163" cy="494.168" rx="15.0794" ry="20.4409" transform="rotate(-17.8428 629.163 494.168)" fill="#D6B7A0"/>
<ellipse cx="592.794" cy="462.85" rx="15.0794" ry="14.492" transform="rotate(-17.8428 592.794 462.85)" fill="#D6B7A0"/>
<ellipse cx="716.794" cy="459.85" rx="15.0794" ry="14.492" transform="rotate(-17.8428 716.794 459.85)" fill="#D6B7A0"/>
<ellipse cx="680.984" cy="494.39" rx="15.0794" ry="20.4409" transform="rotate(14.6646 680.984 494.39)" fill="#D6B7A0"/>
</g>
<defs>
<filter id="filter0_di_246_2" x="428.232" y="270.671" width="331.424" height="338.703" filterUnits="userSpaceOnUse" color-interpolation-filters="sRGB">
<feFlood flood-opacity="0" result="BackgroundImageFix"/>
<feColorMatrix in="SourceAlpha" type="matrix" values="0 0 0 0 0 0 0 0 0 0 0 0 0 0 0 0 0 0 127 0" result="hardAlpha"/>
<feOffset/>
<feGaussianBlur stdDeviation="10"/>
<feComposite in2="hardAlpha" operator="out"/>
<feColorMatrix type="matrix" values="0 0 0 0 1 0 0 0 0 1 0 0 0 0 1 0 0 0 1 0"/>
<feBlend mode="normal" in2="BackgroundImageFix" result="effect1_dropShadow_246_2"/>
<feBlend mode="normal" in="SourceGraphic" in2="effect1_dropShadow_246_2" result="shape"/>
<feColorMatrix in="SourceAlpha" type="matrix" values="0 0 0 0 0 0 0 0 0 0 0 0 0 0 0 0 0 0 127 0" result="hardAlpha"/>
<feOffset/>
<feGaussianBlur stdDeviation="10"/>
<feComposite in2="hardAlpha" operator="arithmetic" k2="-1" k3="1"/>
<feColorMatrix type="matrix" values="0 0 0 0 1 0 0 0 0 1 0 0 0 0 1 0 0 0 1 0"/>
<feBlend mode="normal" in2="shape" result="effect2_innerShadow_246_2"/>
</filter>
<linearGradient id="paint0_linear_246_2" x1="600" y1="0" x2="600" y2="750" gradientUnits="userSpaceOnUse">
<stop stop-color="#CAD5FF"/>
<stop offset="0.5" stop-color="#5C6DBF"/>
<stop offset="1" stop-color="#2C2E72"/>
</linearGradient>
<clipPath id="clip0_246_2">
<rect width="1200" height="750" fill="white"/>
</clipPath>
</defs>
</svg>
